<svg width="50" height="50" viewBox="0 0 50 50" fill="none" xmlns="http://www.w3.org/2000/svg">
<g clip-path="url(#clip0_18_137)">
<rect width="50" height="50" rx="25" fill="url(#paint0_linear_18_137)"/>
<circle cx="25" cy="14" r="7" fill="#D9D9D9"/>
<path d="M37 42C37 39.5049 36.6767 37.0342 36.0485 34.729C35.4203 32.4238 34.4996 30.3293 33.3388 28.565C32.1781 26.8007 30.8001 25.4011 29.2835 24.4463C27.767 23.4914 26.1415 23 24.5 23C22.8585 23 21.233 23.4914 19.7165 24.4463C18.1999 25.4011 16.8219 26.8007 15.6612 28.565C14.5004 30.3293 13.5797 32.4238 12.9515 34.729C12.3233 37.0342 12 39.5049 12 42L24.5 42H37Z" fill="#D9D9D9"/>
</g>
<defs>
<linearGradient id="paint0_linear_18_137" x1="-2" y1="9" x2="50" y2="44" gradientUnits="userSpaceOnUse">
<stop stop-color="#DC0404"/>
<stop offset="1" stop-color="#4901E0"/>
</linearGradient>
<clipPath id="clip0_18_137">
<rect width="50" height="50" rx="25" fill="white"/>
</clipPath>
</defs>
</svg>
