<svg width="533" height="493" viewBox="0 0 533 493" fill="none" xmlns="http://www.w3.org/2000/svg">
<g clip-path="url(#clip0_0_381)">
<g clip-path="url(#clip1_0_381)">
<rect x="69" width="396" height="346" rx="8" fill="#F2F2F2"/>
<path d="M69 8C69 3.58172 72.5817 0 77 0H457C461.418 0 465 3.58172 465 8V27H69V8Z" fill="#C5CFD6"/>
<path fill-rule="evenodd" clip-rule="evenodd" d="M82 18C84.2091 18 86 16.2091 86 14C86 11.7909 84.2091 10 82 10C79.7909 10 78 11.7909 78 14C78 16.2091 79.7909 18 82 18Z" fill="#F2F2F2"/>
<path fill-rule="evenodd" clip-rule="evenodd" d="M94 18C96.2091 18 98 16.2091 98 14C98 11.7909 96.2091 10 94 10C91.7909 10 90 11.7909 90 14C90 16.2091 91.7909 18 94 18Z" fill="#F2F2F2"/>
<path fill-rule="evenodd" clip-rule="evenodd" d="M106 18C108.209 18 110 16.2091 110 14C110 11.7909 108.209 10 106 10C103.791 10 102 11.7909 102 14C102 16.2091 103.791 18 106 18Z" fill="#F2F2F2"/>
<g clip-path="url(#clip2_0_381)">
<g clip-path="url(#clip3_0_381)">
<rect x="379" y="132" width="70" height="194" rx="8" fill="white"/>
<g clip-path="url(#clip4_0_381)">
<rect x="397" y="150" width="34" height="26" rx="4" fill="#DDE3E9"/>
<rect x="397" y="184" width="34" height="25" rx="4" fill="#AFB9C5"/>
<rect x="397" y="217" width="34" height="25" rx="4" fill="#DDE3E9"/>
<rect x="397" y="283" width="34" height="25" rx="4" fill="#DDE3E9"/>
<rect x="397" y="250" width="34" height="25" rx="4" fill="#C5CFD6"/>
</g>
</g>
<rect x="379" y="43" width="70" height="81" rx="8" fill="white"/>
<g clip-path="url(#clip5_0_381)">
<path fill-rule="evenodd" clip-rule="evenodd" d="M414 90C422.837 90 430 82.8366 430 74C430 65.1634 422.837 58 414 58C405.163 58 398 65.1634 398 74C398 82.8366 405.163 90 414 90Z" fill="#DDE3E9"/>
<rect x="389" y="94" width="50" height="6" rx="3" fill="#DDE3E9"/>
<rect x="397" y="104" width="34" height="6" rx="3" fill="#DDE3E9"/>
</g>
<g clip-path="url(#clip6_0_381)">
<g clip-path="url(#clip7_0_381)">
<rect x="85" y="43" width="286" height="47" rx="4" fill="white"/>
<g clip-path="url(#clip8_0_381)">
<rect x="94" y="57.1" width="228" height="7.05" rx="3" fill="#DDE3E9"/>
<rect x="94" y="68.85" width="153.041" height="7.05" rx="3" fill="#DDE3E9"/>
</g>
<path fill-rule="evenodd" clip-rule="evenodd" d="M340.435 73.5C344.301 73.5 347.435 70.366 347.435 66.5C347.435 62.634 344.301 59.5 340.435 59.5C336.569 59.5 333.435 62.634 333.435 66.5C333.435 70.366 336.569 73.5 340.435 73.5Z" fill="#DDE3E9"/>
<path fill-rule="evenodd" clip-rule="evenodd" d="M340.435 69.5C342.092 69.5 343.435 68.1569 343.435 66.5C343.435 64.8431 342.092 63.5 340.435 63.5C338.778 63.5 337.435 64.8431 337.435 66.5C337.435 68.1569 338.778 69.5 340.435 69.5Z" fill="#F2F2F2"/>
</g>
<g clip-path="url(#clip9_0_381)">
<rect x="85" y="98" width="286" height="39" rx="4" fill="white"/>
<g clip-path="url(#clip10_0_381)">
<rect x="94" y="109.7" width="228" height="5.85" rx="2.925" fill="#DDE3E9"/>
<rect x="94" y="119.45" width="153.041" height="5.85" rx="2.925" fill="#DDE3E9"/>
</g>
<path fill-rule="evenodd" clip-rule="evenodd" d="M340.435 124.5C344.301 124.5 347.435 121.366 347.435 117.5C347.435 113.634 344.301 110.5 340.435 110.5C336.569 110.5 333.435 113.634 333.435 117.5C333.435 121.366 336.569 124.5 340.435 124.5Z" fill="#DDE3E9"/>
<path fill-rule="evenodd" clip-rule="evenodd" d="M340.435 120.5C342.092 120.5 343.435 119.157 343.435 117.5C343.435 115.843 342.092 114.5 340.435 114.5C338.778 114.5 337.435 115.843 337.435 117.5C337.435 119.157 338.778 120.5 340.435 120.5Z" fill="#F2F2F2"/>
</g>
<g clip-path="url(#clip11_0_381)">
<rect x="85" y="145" width="286" height="39" rx="4" fill="white"/>
<g clip-path="url(#clip12_0_381)">
<rect x="94" y="156.7" width="228" height="5.85" rx="2.925" fill="#DDE3E9"/>
<rect x="94" y="166.45" width="153.041" height="5.85" rx="2.925" fill="#DDE3E9"/>
</g>
<path fill-rule="evenodd" clip-rule="evenodd" d="M340.435 171.5C344.301 171.5 347.435 168.366 347.435 164.5C347.435 160.634 344.301 157.5 340.435 157.5C336.569 157.5 333.435 160.634 333.435 164.5C333.435 168.366 336.569 171.5 340.435 171.5Z" fill="#DDE3E9"/>
<path fill-rule="evenodd" clip-rule="evenodd" d="M340.435 167.5C342.092 167.5 343.435 166.157 343.435 164.5C343.435 162.843 342.092 161.5 340.435 161.5C338.778 161.5 337.435 162.843 337.435 164.5C337.435 166.157 338.778 167.5 340.435 167.5Z" fill="#AFB9C5"/>
</g>
<g clip-path="url(#clip13_0_381)">
<rect x="85" y="286" width="286" height="39" rx="4" fill="white"/>
<g clip-path="url(#clip14_0_381)">
<rect x="94" y="297.7" width="228" height="5.85" rx="2.925" fill="#DDE3E9"/>
<rect x="94" y="307.45" width="153.041" height="5.85" rx="2.925" fill="#DDE3E9"/>
</g>
<path fill-rule="evenodd" clip-rule="evenodd" d="M340.435 312.5C344.301 312.5 347.435 309.366 347.435 305.5C347.435 301.634 344.301 298.5 340.435 298.5C336.569 298.5 333.435 301.634 333.435 305.5C333.435 309.366 336.569 312.5 340.435 312.5Z" fill="#DDE3E9"/>
<path fill-rule="evenodd" clip-rule="evenodd" d="M340.435 308.5C342.092 308.5 343.435 307.157 343.435 305.5C343.435 303.843 342.092 302.5 340.435 302.5C338.778 302.5 337.435 303.843 337.435 305.5C337.435 307.157 338.778 308.5 340.435 308.5Z" fill="#F2F2F2"/>
</g>
<g clip-path="url(#clip15_0_381)">
<rect x="85" y="239" width="286" height="39" rx="4" fill="white"/>
<g clip-path="url(#clip16_0_381)">
<rect x="94" y="250.7" width="228" height="5.85" rx="2.925" fill="#DDE3E9"/>
<rect x="94" y="260.45" width="153.041" height="5.85" rx="2.925" fill="#DDE3E9"/>
</g>
<path fill-rule="evenodd" clip-rule="evenodd" d="M340.435 265.5C344.301 265.5 347.435 262.366 347.435 258.5C347.435 254.634 344.301 251.5 340.435 251.5C336.569 251.5 333.435 254.634 333.435 258.5C333.435 262.366 336.569 265.5 340.435 265.5Z" fill="#DDE3E9"/>
<path fill-rule="evenodd" clip-rule="evenodd" d="M340.435 261.5C342.092 261.5 343.435 260.157 343.435 258.5C343.435 256.843 342.092 255.5 340.435 255.5C338.778 255.5 337.435 256.843 337.435 258.5C337.435 260.157 338.778 261.5 340.435 261.5Z" fill="#F2F2F2"/>
</g>
<g clip-path="url(#clip17_0_381)">
<rect x="85" y="192" width="286" height="39" rx="4" fill="white"/>
<g clip-path="url(#clip18_0_381)">
<rect x="94" y="203.7" width="228" height="5.85" rx="2.925" fill="#DDE3E9"/>
<rect x="94" y="213.45" width="153.041" height="5.85" rx="2.925" fill="#DDE3E9"/>
</g>
<path fill-rule="evenodd" clip-rule="evenodd" d="M340.435 218.5C344.301 218.5 347.435 215.366 347.435 211.5C347.435 207.634 344.301 204.5 340.435 204.5C336.569 204.5 333.435 207.634 333.435 211.5C333.435 215.366 336.569 218.5 340.435 218.5Z" fill="#DDE3E9"/>
<path fill-rule="evenodd" clip-rule="evenodd" d="M340.435 214.5C342.092 214.5 343.435 213.157 343.435 211.5C343.435 209.843 342.092 208.5 340.435 208.5C338.778 208.5 337.435 209.843 337.435 211.5C337.435 213.157 338.778 214.5 340.435 214.5Z" fill="#F2F2F2"/>
</g>
</g>
</g>
</g>
<path fill-rule="evenodd" clip-rule="evenodd" d="M122.145 182.31C128.334 184.937 134.175 185.806 136.712 184.76C143.074 182.136 140.298 157.976 133.857 149.203C127.416 140.43 100.579 139.983 101.898 158.974C102.356 165.565 105.924 171.003 110.653 175.185L108.126 210.046L129.279 207.073L122.145 182.31Z" fill="#B28B67"/>
<path fill-rule="evenodd" clip-rule="evenodd" d="M124.049 140.04C121.035 139.568 116.798 139.86 115.061 140.309C115.728 137.77 115.751 135.042 115.06 132.486C114.389 130.002 112.954 128.009 111.589 125.901C110.96 124.929 110.267 123.972 109.339 123.291C108.394 122.598 107.267 122.211 106.127 122.111C104.961 122.009 103.783 122.196 102.686 122.592C102.2 122.767 101.783 123.059 101.31 123.254C100.826 123.455 100.538 123.175 100.129 122.912C99.1433 122.276 97.8021 122.082 96.6712 122.104C95.4024 122.129 94.1341 122.499 93.0017 123.075C91.8995 123.636 90.8777 124.438 90.1727 125.498C89.8587 125.969 89.5874 126.494 89.4415 127.052C89.3816 127.281 89.3847 127.411 89.1795 127.52C88.9897 127.622 88.7559 127.657 88.5592 127.756C86.657 128.711 85.1658 130.489 84.5137 132.595C84.1333 133.823 84.1615 135.888 84.5514 138.152C84.9414 140.416 87.8347 146.06 90.0651 147.954C92.0559 149.644 94.7622 150.563 97.2796 150.779C95.92 152.851 95.1664 155.308 94.699 157.764C94.1914 160.433 94.0276 163.154 94.2087 165.878C94.3808 168.466 94.7441 171.178 95.6988 173.6C96.5918 175.866 98.0672 177.62 100.25 178.557C101.251 178.986 102.301 179.267 103.352 179.511C104.388 179.751 105.425 179.98 106.485 180.047C108.489 180.175 110.725 179.791 112.008 178.034C112.471 177.4 112.967 176.616 113.266 175.88C113.374 175.615 113.437 175.443 113.231 175.228C112.984 174.97 112.619 174.797 112.322 174.61C110.63 173.544 109.453 171.969 108.932 169.974C108.403 167.949 108.584 165.215 110.465 164.034C112.787 162.577 115.694 163.467 118.063 164.344C118.536 160.919 120.041 157.684 122.841 155.75C125.94 153.61 129.737 152.877 132.961 150.962C133.801 150.463 134.65 149.911 135.2 149.057C135.43 148.7 135.694 148.242 135.745 147.806C135.811 147.233 135.388 146.82 135.052 146.428C133.266 144.349 127.063 140.513 124.049 140.04Z" fill="#191847"/>
<path fill-rule="evenodd" clip-rule="evenodd" d="M115.7 279.93L181.833 390.159L231.413 483.349H242.092L159.02 279.93L115.7 279.93Z" fill="#997659"/>
<path fill-rule="evenodd" clip-rule="evenodd" d="M227.566 478.149C226.493 477.686 225.221 478.161 224.826 479.261C224.189 481.036 223.39 483.551 223.39 484.995C223.39 487.395 224.192 492 224.192 492C226.985 492 274.39 492 274.39 492C274.39 492 276.346 485.551 272.131 485.036C267.915 484.522 265.127 484.108 265.127 484.108L241.897 473.783C241.383 473.555 240.782 473.795 240.567 474.315L239.11 477.837C239.11 477.837 235.208 479.653 232.768 479.653C231.348 479.653 229.153 478.834 227.566 478.149Z" fill="#E4E4E4"/>
<path fill-rule="evenodd" clip-rule="evenodd" d="M217.643 468.426L238.238 462.215C238.238 462.215 224.703 421.876 205.061 373.431C185.418 324.986 162.87 279.93 162.87 279.93H104.703C104.703 279.93 129.772 336.924 157.856 383.503C185.939 430.081 217.643 468.426 217.643 468.426Z" fill="#DB2721"/>
<path fill-rule="evenodd" clip-rule="evenodd" d="M111.354 279.93C105.112 318.665 93.0736 368.154 91.9375 369.681C91.1801 370.699 63.9133 379.809 10.137 397.009L12.4438 406.398C76.5719 397.173 110.362 390.016 113.814 384.927C118.992 377.293 144.846 316.987 154.86 279.93H111.354Z" fill="#B28B67"/>
<path fill-rule="evenodd" clip-rule="evenodd" d="M29.0403 388.893L33.1035 404.015C81.0676 408.209 110.456 405.178 121.269 394.923C132.083 384.668 144.406 346.337 158.241 279.93H102.776C94.0103 334.308 89.11 362.639 88.0745 364.922C87.0391 367.204 67.361 375.195 29.0403 388.893Z" fill="#FF4133"/>
<path fill-rule="evenodd" clip-rule="evenodd" d="M14.1201 395.589C14.3921 394.449 13.7002 393.275 12.5438 393.078C10.68 392.761 8.06033 392.414 6.6355 392.664C4.26469 393.081 -0.144426 394.668 -0.144426 394.668C0.340528 397.41 8.5723 443.955 8.5723 443.955C8.5723 443.955 15.2825 444.756 15.0584 440.527C14.8343 436.299 14.7595 433.489 14.7595 433.489L20.9227 408.895C21.0598 408.347 20.7172 407.795 20.1659 407.674L16.4358 406.856C16.4358 406.856 13.9649 403.34 13.5412 400.944C13.2953 399.554 13.7202 397.265 14.1201 395.589Z" fill="#E4E4E4"/>
<path fill-rule="evenodd" clip-rule="evenodd" d="M178.267 201.703L150.024 222.706L163.02 233.207L182.396 209.792C193.654 204.929 198.678 201.823 197.469 200.473C196.449 199.335 195.096 199.57 193.849 199.786C192.878 199.955 191.972 200.112 191.339 199.6C189.893 198.432 191.63 193.392 193.484 188.679C195.337 183.966 192.752 184.717 191.332 185.557C186.863 189.583 182.508 194.965 178.267 201.703ZM212.319 220.818L199.916 230.066L202.571 243.403C202.571 243.403 210.394 235.918 217.588 232.784C226.762 228.788 230.34 226.219 234.172 219.637C236.223 216.115 237.445 209.443 234.778 207.701C233.754 207.033 230.623 209.391 227.428 211.798C224.993 213.632 222.521 215.494 220.917 216.065C218.758 216.834 218.614 213.924 218.5 211.599C218.417 209.931 218.35 208.563 217.563 209.072C213.639 209.692 212.319 220.818 212.319 220.818Z" fill="#997659"/>
<path fill-rule="evenodd" clip-rule="evenodd" d="M134.603 221.079C145.302 219.46 159.273 215.196 173.163 203.405L181.022 215.875C171.968 227.758 158.382 238.386 145.402 239.841C135.173 240.987 128.239 229.432 134.603 221.079Z" fill="#2026A2"/>
<path fill-rule="evenodd" clip-rule="evenodd" d="M118.522 316.342C108.149 316.45 98.6182 316.548 93.2245 318.417C84.1689 299.14 87.5536 285.727 90.6782 273.344C92.5614 265.881 94.35 258.792 93.2637 251.02C90.1003 228.388 103.431 190.993 106.112 190.616L106.882 190.508L128.133 187.521L130.566 187.179C133.628 201.03 140.425 215.536 147.266 230.136C148.863 233.546 150.463 236.96 152.019 240.373C170.356 241.897 207.851 222.351 207.851 222.351C207.851 222.351 220.702 241.499 221.18 250.355C199.891 265.545 180.954 273.646 164.784 276.277C166.647 285.8 166.759 295.095 163.996 303.99C160.295 315.909 137.935 316.141 118.522 316.342Z" fill="#1F28CF"/>
<path fill-rule="evenodd" clip-rule="evenodd" d="M383.416 182.073C378.117 186.213 372.701 188.564 369.979 188.21C363.155 187.322 359.584 163.267 363.534 153.126C367.485 142.985 393.292 135.607 396.933 154.292C398.196 160.777 396.158 166.953 392.672 172.216L404.135 205.236L382.935 207.839L383.416 182.073Z" fill="#B28B67"/>
<path fill-rule="evenodd" clip-rule="evenodd" d="M374.272 140.678C377.01 139.879 384.495 138.641 385.883 138.471C386.769 138.362 387.755 138.446 388.181 137.569C388.529 136.852 388.233 135.747 388.267 134.96C388.306 134.046 388.409 133.135 388.515 132.227C388.816 129.641 389.444 127.14 390.458 124.739C392.36 120.235 395.499 116.505 399.737 114.038C404.418 111.314 409.948 110.143 415.315 109.92C421.058 109.681 426.435 110.92 432.02 112.022C437.343 113.072 442.783 113.075 448.033 111.598C453.324 110.111 457.04 106.697 461.248 103.374C465.556 99.9711 470.649 97.4664 476.205 97.2162C481.391 96.9829 486.386 98.5164 490.981 100.82C495.28 102.975 498.95 105.753 501.351 110.001C503.934 114.572 504.581 119.857 501.828 124.514C497.838 131.265 489.22 133.942 481.867 134.684C477.614 135.113 473.354 134.853 469.177 133.94C463.607 132.723 458.602 130.116 453.29 128.154C450.797 127.233 448.251 126.538 445.623 126.135C443.073 125.744 440.606 125.724 438.556 127.482C436.388 129.343 434.461 131.146 431.881 132.46C429.405 133.722 426.726 134.586 423.962 134.904C418.586 135.522 413.086 134.504 407.732 134.027C403.365 133.638 398.702 133.289 394.472 134.697C392.707 135.285 390.157 136.364 389.733 138.32C400.979 138.957 406.966 151.992 405.087 162.331C404.073 167.911 394.782 175.43 390.522 173.084C387.824 171.599 389.04 169.064 389.824 167.393C391.324 164.193 391.493 160.298 387.788 158.653C384.593 157.235 381.983 161.856 381.923 161.858C381.097 161.894 373.538 158.776 367.954 153.558C363.184 154.432 362.067 151.363 362.897 148.639C363.727 145.914 370.489 141.784 374.272 140.678Z" fill="#191847"/>
<path fill-rule="evenodd" clip-rule="evenodd" d="M429.187 279.93C427.582 301.766 324.2 366.056 323.597 367.86C323.195 369.063 355.776 443.888 355.776 443.888L346.739 447.389C346.739 447.389 296.765 368.144 299.332 359.7C303.007 347.611 379.544 280.162 379.544 280.162L429.187 279.93Z" fill="#B28B67"/>
<path fill-rule="evenodd" clip-rule="evenodd" d="M353.398 432.622L338.643 437.977C307.531 402.979 295.336 374.102 297.559 359.389C299.783 344.676 377.495 279.983 377.495 279.983L430.245 279.983C428.445 330.554 332.623 368.053 331.341 370.208C330.06 372.363 342.673 393.469 353.398 432.622Z" fill="#2F3676"/>
<path fill-rule="evenodd" clip-rule="evenodd" d="M356.271 442.24C357.121 441.438 358.48 441.451 359.228 442.35C360.436 443.801 362.05 445.891 362.545 447.248C363.368 449.503 364.194 454.104 364.194 454.104C361.57 455.056 317.024 471.221 317.024 471.221C317.024 471.221 312.973 465.828 316.758 463.907C320.543 461.986 323.021 460.646 323.021 460.646L341.307 443.023C341.712 442.633 342.36 442.654 342.74 443.069L345.317 445.882C345.317 445.882 349.607 446.257 351.9 445.425C353.234 444.941 355.014 443.424 356.271 442.24Z" fill="#E4E4E4"/>
<path fill-rule="evenodd" clip-rule="evenodd" d="M417.3 279.93L463.354 390.159L508.618 483.349H497.939L381.1 279.93H417.3Z" fill="#997659"/>
<path fill-rule="evenodd" clip-rule="evenodd" d="M506.574 478.149C507.647 477.686 508.919 478.161 509.314 479.261C509.951 481.036 510.75 483.551 510.75 484.995C510.75 487.395 509.948 492 509.948 492C507.155 492 459.75 492 459.75 492C459.75 492 457.794 485.551 462.009 485.036C466.225 484.522 469.013 484.108 469.013 484.108L492.243 473.783C492.757 473.555 493.358 473.795 493.573 474.315L495.03 477.837C495.03 477.837 498.932 479.653 501.372 479.653C502.792 479.653 504.987 478.834 506.574 478.149Z" fill="#E4E4E4"/>
<path fill-rule="evenodd" clip-rule="evenodd" d="M504.53 463.99L480.801 468.426C462.453 441.533 385.669 331.263 377.25 279.93H430.077C458.191 317.038 487.041 436.652 504.53 463.99Z" fill="#5C63AB"/>
<path fill-rule="evenodd" clip-rule="evenodd" d="M302.218 253.245L335.947 263.33L327.329 277.639L301.107 262.258C288.864 261.535 283.079 260.333 283.754 258.652C284.322 257.234 285.674 256.992 286.92 256.769C287.89 256.596 288.795 256.434 289.215 255.737C290.174 254.144 286.816 250.002 283.461 246.207C280.106 242.412 282.792 242.234 284.415 242.538C289.992 244.794 295.927 248.363 302.218 253.245ZM448.165 257.104L465.827 251.301C482.064 282.053 491.554 298.833 494.295 301.639C496.306 303.697 507.703 308.235 515.315 310.471C518.371 311.368 518.048 313.889 517.293 314.776C512.531 320.368 507.328 319.251 501.665 318.036C500.026 317.684 498.348 317.324 496.631 317.116C492.186 316.578 491.145 318.951 490.161 321.193C489.29 323.178 488.464 325.061 485.36 324.731C485.425 324.124 485.512 323.442 485.606 322.705C486.216 317.946 487.115 310.926 484.056 307.288C482.486 305.421 470.522 288.693 448.165 257.104Z" fill="#B28B67"/>
<path fill-rule="evenodd" clip-rule="evenodd" d="M390.235 192.042L382.436 191.673C367.774 209.807 365.731 249.298 355.272 255.776C345.383 261.901 329.948 259.044 311.508 254.892L307.578 267.606C325.753 282.947 361.74 293.374 374.574 283.323C395.093 267.253 394.354 218.947 390.235 192.042Z" fill="#DB2721"/>
<path fill-rule="evenodd" clip-rule="evenodd" d="M435.285 283.658C435.285 283.658 389.343 289.299 367.697 291.957C364.609 292.336 364.645 287.819 364.816 285.52C366.789 258.994 383.476 228.613 378.95 191.755L398.071 186.313C417.371 210.189 426.856 241.339 435.285 283.658Z" fill="#DDE3E9"/>
<path fill-rule="evenodd" clip-rule="evenodd" d="M399.106 186.186L399.329 186.158C446.355 207.655 477.896 246.056 493.949 301.361L480.122 305.866C469.399 296.119 455.628 279.701 438.807 256.615C444.867 271.022 449.833 285.952 452.573 300.309L391.733 307.779C376.312 279.55 391.61 187.106 391.61 187.106L395.81 186.591L399.106 186.186Z" fill="#FF4133"/>
<path fill-rule="evenodd" clip-rule="evenodd" d="M233.165 188.709C233.164 188.714 233.164 188.72 233.162 188.726C233.164 188.721 233.163 188.7 233.165 188.709Z" fill="#C5CFD6"/>
<path fill-rule="evenodd" clip-rule="evenodd" d="M233.162 188.717C233.163 188.718 233.162 188.721 233.163 188.723C233.161 188.718 233.166 188.701 233.162 188.717Z" fill="#C5CFD6"/>
<path fill-rule="evenodd" clip-rule="evenodd" d="M233.176 188.627C233.174 188.648 233.169 188.669 233.167 188.69C233.168 188.679 233.17 188.671 233.171 188.66C233.133 188.937 233.157 188.757 233.176 188.627Z" fill="#C5CFD6"/>
<path fill-rule="evenodd" clip-rule="evenodd" d="M233.168 188.691C233.167 188.701 233.165 188.711 233.164 188.721C233.149 188.782 233.168 188.691 233.168 188.691Z" fill="#C5CFD6"/>
<path fill-rule="evenodd" clip-rule="evenodd" d="M233.163 188.718C233.163 188.717 233.163 188.717 233.164 188.715C233.163 188.717 233.163 188.717 233.163 188.718Z" fill="#C5CFD6"/>
<path fill-rule="evenodd" clip-rule="evenodd" d="M233.16 188.726C233.157 188.739 233.176 188.674 233.16 188.726V188.726Z" fill="#C5CFD6"/>
<path fill-rule="evenodd" clip-rule="evenodd" d="M233.163 188.718L233.164 188.715C233.163 188.716 233.164 188.717 233.163 188.718Z" fill="#C5CFD6"/>
<rect x="171.392" y="148.676" width="100" height="66" rx="4" transform="rotate(-14 171.392 148.676)" fill="#2B44FF"/>
<path fill-rule="evenodd" clip-rule="evenodd" d="M212.726 158.234L196.113 210.815L252.08 196.861L212.726 158.234Z" fill="black" fill-opacity="0.2"/>
<path fill-rule="evenodd" clip-rule="evenodd" d="M244.625 163.256L228.21 202.812L277.689 190.476L244.625 163.256Z" fill="black" fill-opacity="0.2"/>
<path fill-rule="evenodd" clip-rule="evenodd" d="M255.324 161.063C260.414 159.794 263.512 154.638 262.243 149.547C260.974 144.456 255.818 141.358 250.727 142.627C245.636 143.897 242.538 149.052 243.808 154.143C245.077 159.234 250.233 162.332 255.324 161.063Z" fill="white"/>
</g>
<defs>
<clipPath id="clip0_0_381">
<rect width="533" height="493" fill="white"/>
</clipPath>
<clipPath id="clip1_0_381">
<rect width="396" height="346" fill="white" transform="translate(69)"/>
</clipPath>
<clipPath id="clip2_0_381">
<rect width="364" height="283" fill="white" transform="translate(85 43)"/>
</clipPath>
<clipPath id="clip3_0_381">
<rect width="70" height="194" fill="white" transform="translate(379 132)"/>
</clipPath>
<clipPath id="clip4_0_381">
<rect width="34" height="158" fill="white" transform="translate(397 150)"/>
</clipPath>
<clipPath id="clip5_0_381">
<rect width="50" height="52" fill="white" transform="translate(389 58)"/>
</clipPath>
<clipPath id="clip6_0_381">
<rect width="286" height="282" fill="white" transform="translate(85 43)"/>
</clipPath>
<clipPath id="clip7_0_381">
<rect width="286" height="47" fill="white" transform="translate(85 43)"/>
</clipPath>
<clipPath id="clip8_0_381">
<rect width="228" height="19" fill="white" transform="translate(94 57.1)"/>
</clipPath>
<clipPath id="clip9_0_381">
<rect width="286" height="39" fill="white" transform="translate(85 98)"/>
</clipPath>
<clipPath id="clip10_0_381">
<rect width="228" height="16" fill="white" transform="translate(94 109.7)"/>
</clipPath>
<clipPath id="clip11_0_381">
<rect width="286" height="39" fill="white" transform="translate(85 145)"/>
</clipPath>
<clipPath id="clip12_0_381">
<rect width="228" height="16" fill="white" transform="translate(94 156.7)"/>
</clipPath>
<clipPath id="clip13_0_381">
<rect width="286" height="39" fill="white" transform="translate(85 286)"/>
</clipPath>
<clipPath id="clip14_0_381">
<rect width="228" height="16" fill="white" transform="translate(94 297.7)"/>
</clipPath>
<clipPath id="clip15_0_381">
<rect width="286" height="39" fill="white" transform="translate(85 239)"/>
</clipPath>
<clipPath id="clip16_0_381">
<rect width="228" height="16" fill="white" transform="translate(94 250.7)"/>
</clipPath>
<clipPath id="clip17_0_381">
<rect width="286" height="39" fill="white" transform="translate(85 192)"/>
</clipPath>
<clipPath id="clip18_0_381">
<rect width="228" height="16" fill="white" transform="translate(94 203.7)"/>
</clipPath>
</defs>
</svg>
